<svg width="18" height="19" viewBox="0 0 18 19" fill="none" xmlns="http://www.w3.org/2000/svg">
<path d="M1 17.1051V15.3156C1 14.3664 1.42129 13.4561 2.1712 12.785C2.9211 12.1138 3.9382 11.7367 4.99872 11.7367H8.49761M2.99936 4.5789C2.99936 5.52809 3.42065 6.4384 4.17056 7.10957C4.92047 7.78075 5.93756 8.15781 6.99809 8.15781C8.05861 8.15781 9.0757 7.78075 9.82561 7.10957C10.5755 6.4384 10.9968 5.52809 10.9968 4.5789C10.9968 3.62972 10.5755 2.71941 9.82561 2.04824C9.0757 1.37706 8.05861 1 6.99809 1C5.93756 1 4.92047 1.37706 4.17056 2.04824C3.42065 2.71941 2.99936 3.62972 2.99936 4.5789ZM13.416 12.2827C13.611 12.1082 13.8424 11.9698 14.0971 11.8754C14.3519 11.7809 14.6249 11.7323 14.9006 11.7323C15.1763 11.7323 15.4493 11.7809 15.704 11.8754C15.9587 11.9698 16.1901 12.1082 16.3851 12.2827C16.58 12.4572 16.7347 12.6643 16.8402 12.8923C16.9457 13.1203 17 13.3646 17 13.6114C17 13.8581 16.9457 14.1025 16.8402 14.3304C16.7347 14.5584 16.58 14.7656 16.3851 14.94L12.9962 18H9.99713V15.3158L13.416 12.2827Z" stroke="black" stroke-width="2" stroke-linecap="round" stroke-linejoin="round"/>
</svg>
